<?xml version="1.0" encoding="UTF-8"?>
<svg id="Layer_2" data-name="Layer 2" xmlns="http://www.w3.org/2000/svg" viewBox="0 0 862 230.36">
  <g id="Layer_1-2" data-name="Layer 1">
    <g>
      <g>
        <polygon points="101.8 134.11 146.91 0 44.33 97.46 0 230.36 101.8 134.11"/>
        <polygon points="169.92 177.55 182.04 83.42 101.8 134.11 89.65 228.29 169.92 177.55"/>
        <polygon points="163.59 226.7 205.33 200.5 211.18 152.09 169.75 177.81 163.59 226.7"/>
      </g>
      <g>
        <path d="M263.94,166.63c0-29.92,21.46-52.56,50.2-52.56,16.73,0,30.51,7.88,38.98,20.47v-18.11h16.93v100.4h-16.93v-18.11c-8.46,12.6-22.25,20.47-38.98,20.47-28.74,0-50.2-22.64-50.2-52.56ZM353.11,166.63c0-20.67-15.36-36.22-35.83-36.22s-36.03,15.55-36.03,36.22,15.36,36.22,36.03,36.22,35.83-15.55,35.83-36.22Z"/>
        <path d="M391.31,75.09h16.93v93.12l50.59-51.77h21.65l-44.1,44.88,45.67,55.51h-21.85l-35.83-43.31-16.14,16.73v26.58h-16.93V75.09Z"/>
        <path d="M488.75,75.09h16.93v141.74h-16.93V75.09Z"/>
        <path d="M520.25,166.63c0-29.92,23.03-52.56,53.35-52.56s53.35,22.64,53.35,52.56c0,2.36-.2,4.92-.39,7.09h-88.19c2.95,17.72,17.13,29.92,36.03,29.92,13.98,0,26.18-6.69,31.89-16.73h18.9c-7.87,19.29-27.36,32.29-50.99,32.29-30.91,0-53.94-22.64-53.94-52.56ZM538.55,158.56h70.48c-2.95-16.73-17.13-28.94-35.44-28.94s-31.69,11.81-35.04,28.94Z"/>
        <path d="M634.62,166.63c0-29.92,21.46-52.56,50.2-52.56,16.73,0,30.51,7.88,38.98,20.47v-18.11h16.93v100.4h-16.93v-18.11c-8.46,12.6-22.25,20.47-38.98,20.47-28.74,0-50.2-22.64-50.2-52.56ZM723.8,166.63c0-20.67-15.36-36.22-35.83-36.22s-36.03,15.55-36.03,36.22,15.36,36.22,36.03,36.22,35.83-15.55,35.83-36.22Z"/>
        <path d="M755.1,166.63c0-29.92,23.03-52.56,53.55-52.56s53.35,22.64,53.35,52.56-23.03,52.56-53.35,52.56-53.55-22.64-53.55-52.56ZM844.48,166.63c0-20.67-15.36-36.22-35.83-36.22s-36.03,15.55-36.03,36.22,15.36,36.22,36.03,36.22,35.83-15.55,35.83-36.22Z"/>
      </g>
    </g>
  </g>
</svg>